<?xml version="1.0" encoding="utf-8"?>
<!-- Generator: Adobe Illustrator 18.0.0, SVG Export Plug-In . SVG Version: 6.00 Build 0)  -->
<!DOCTYPE svg PUBLIC "-//W3C//DTD SVG 1.1//EN" "http://www.w3.org/Graphics/SVG/1.1/DTD/svg11.dtd">
<svg version="1.1" id="Layer_1" xmlns="http://www.w3.org/2000/svg" xmlns:xlink="http://www.w3.org/1999/xlink" x="0px" y="0px"
	 viewBox="0 0 527.2 530.8" enable-background="new 0 0 527.2 530.8" xml:space="preserve">
<g>
	<g>
		<path fill="#FFFFFF" d="M313.6,51.2l42.1-24.4c0,0-33.8-16.2-113-16.9l167.8,289c0,0,8.7,10,24.8,0.6c16.1-9.3,7.1-26.6,7.1-26.6
			L313.6,51.2z M286,365.5c0,0,6,15.3,22.2,5.9c16.2-9.4,7.1-26.6,7.1-26.6l-145-249.7c0,0-8.7-17.5-25.2-7.9
			c-16.5,9.6-6.5,24.4-6.5,24.4L286,365.5z M396.8,381.9c0,0,15.1,51.2-60.9,95.4s-134.1-40.3-134.1-40.3L44.5,166.2
			c0,0-8.4-15.7-24.4-6.5c-16,9.3-8.7,23.8-8.7,23.8l131.2,225.9l-36.5,21.2c0,0,37.6,39.6,77.3,62c43.4,24.6,70.8,28.3,70.8,28.3
			s56.9-16.3,101.1-45.6c49-32.4,86-78.1,86-78.1s-9.8-0.2-20.5-3.1C410,391.3,396.8,381.9,396.8,381.9z M516.7,149
			c-1.6-17.6-7.3-35.2-7.3-35.2s-14.2-15.1-30.8-27.2c-14-10.2-30.9-17.7-30.9-17.7l68.4,117.8C516.1,186.9,518.4,167.8,516.7,149z"
			/>
	</g>
</g>
</svg>
